<svg xmlns="http://www.w3.org/2000/svg" xmlns:xlink="http://www.w3.org/1999/xlink" viewBox="0,0,256,256" width="64px" height="64px"><defs><linearGradient x1="14.93" y1="10.032" x2="14.93" y2="59.434" gradientUnits="userSpaceOnUse" id="color-1"><stop offset="0" stop-color="#a1a1aa"></stop><stop offset="1" stop-color="#ddd6fe"></stop></linearGradient><linearGradient x1="31.002" y1="3.999" x2="31.002" y2="19.93" gradientUnits="userSpaceOnUse" id="color-2"><stop offset="0" stop-color="#d4d4d8"></stop><stop offset="1" stop-color="#ede9fe"></stop></linearGradient><linearGradient x1="31" y1="35.657" x2="31" y2="58.331" gradientUnits="userSpaceOnUse" id="color-3"><stop offset="0" stop-color="#d4d4d8"></stop><stop offset="1" stop-color="#ede9fe"></stop></linearGradient><linearGradient x1="31" y1="10.032" x2="31" y2="59.434" gradientUnits="userSpaceOnUse" id="color-4"><stop offset="0" stop-color="#a1a1aa"></stop><stop offset="1" stop-color="#ddd6fe"></stop></linearGradient><linearGradient x1="31" y1="10.032" x2="31" y2="59.434" gradientUnits="userSpaceOnUse" id="color-5"><stop offset="0" stop-color="#a1a1aa"></stop><stop offset="1" stop-color="#ddd6fe"></stop></linearGradient><linearGradient x1="31" y1="10.032" x2="31" y2="59.434" gradientUnits="userSpaceOnUse" id="color-6"><stop offset="0" stop-color="#a1a1aa"></stop><stop offset="1" stop-color="#ddd6fe"></stop></linearGradient><linearGradient x1="32" y1="10.032" x2="32" y2="59.434" gradientUnits="userSpaceOnUse" id="color-7"><stop offset="0" stop-color="#a1a1aa"></stop><stop offset="1" stop-color="#ddd6fe"></stop></linearGradient><linearGradient x1="31" y1="10.032" x2="31" y2="59.434" gradientUnits="userSpaceOnUse" id="color-8"><stop offset="0" stop-color="#a1a1aa"></stop><stop offset="1" stop-color="#ddd6fe"></stop></linearGradient></defs><g fill="none" fill-rule="nonzero" stroke="none" stroke-width="1" stroke-linecap="butt" stroke-linejoin="miter" stroke-miterlimit="10" stroke-dasharray="" stroke-dashoffset="0" font-family="none" font-weight="none" font-size="none" text-anchor="none" style="mix-blend-mode: normal"><g transform="scale(4,4)"><path d="M9,15.5c0,-1.93 1.57,-3.5 3.5,-3.5h8.558c0.542,-0.719 1.143,-1.39 1.802,-2h-10.36c-3.032,0 -5.5,2.467 -5.5,5.5l1,1.5z" fill="url(#color-1)"></path><path d="M39.076,8.385l1.774,-2.858c0.291,-0.469 0.147,-1.086 -0.322,-1.377c-0.469,-0.292 -1.085,-0.147 -1.377,0.322l-1.833,2.953c-1.929,-0.906 -4.068,-1.425 -6.318,-1.425c-2.25,0 -4.389,0.519 -6.318,1.425l-1.832,-2.952c-0.291,-0.469 -0.907,-0.614 -1.377,-0.322c-0.47,0.291 -0.613,0.908 -0.322,1.377l1.774,2.858c-3.854,2.484 -6.526,6.685 -6.87,11.544h29.893c-0.346,-4.86 -3.018,-9.062 -6.872,-11.545zM24.5,16c-0.828,0 -1.5,-0.672 -1.5,-1.5c0,-0.828 0.672,-1.5 1.5,-1.5c0.828,0 1.5,0.672 1.5,1.5c0,0.828 -0.672,1.5 -1.5,1.5zM37.5,16c-0.828,0 -1.5,-0.672 -1.5,-1.5c0,-0.828 0.672,-1.5 1.5,-1.5c0.828,0 1.5,0.672 1.5,1.5c0,0.828 -0.672,1.5 -1.5,1.5z" fill="url(#color-2)"></path><path d="M43.709,55.325l-9.502,-19.955c-0.729,0.984 -1.889,1.63 -3.207,1.63c-1.318,0 -2.478,-0.646 -3.207,-1.63l-9.502,19.955c-0.552,1.159 -0.222,2.605 0.867,3.286c0.425,0.266 0.886,0.39 1.34,0.39c0.935,0 1.831,-0.526 2.259,-1.426l6.388,-13.414c0.744,-1.562 2.967,-1.562 3.711,0l6.388,13.414c0.428,0.9 1.324,1.426 2.259,1.426c0.454,0 0.916,-0.124 1.34,-0.39c1.088,-0.681 1.418,-2.127 0.866,-3.286z" fill="url(#color-3)"></path><path d="M31,30c-0.553,0 -1,-0.448 -1,-1v-3c0,-0.552 0.447,-1 1,-1c0.553,0 1,0.448 1,1v3c0,0.552 -0.447,1 -1,1z" fill="url(#color-4)"></path><path d="M44.612,54.896l-9.831,-20.646c-0.249,0.753 -0.71,1.401 -1.32,1.881l9.344,19.624c0.35,0.734 0.133,1.616 -0.493,2.008c-0.759,0.475 -1.795,0.161 -2.166,-0.619l-6.388,-13.414c-0.512,-1.074 -1.568,-1.741 -2.758,-1.741c-1.19,0 -2.246,0.667 -2.759,1.741l-6.388,13.415c-0.369,0.778 -1.405,1.092 -2.166,0.618c-0.626,-0.392 -0.843,-1.274 -0.493,-2.008l9.344,-19.624c-0.61,-0.48 -1.07,-1.129 -1.32,-1.882l-9.831,20.646c-0.791,1.664 -0.259,3.625 1.239,4.563c0.568,0.355 1.215,0.542 1.872,0.542c1.345,0 2.586,-0.784 3.162,-1.996l6.387,-13.414c0.359,-0.754 1.548,-0.754 1.905,0l6.388,13.413c0.576,1.214 1.817,1.997 3.162,1.997c0.657,0 1.304,-0.188 1.871,-0.542c1.498,-0.937 2.03,-2.899 1.239,-4.562z" fill="url(#color-5)"></path><path d="M31,38c-2.757,0 -5,-2.243 -5,-5c0,-2.757 2.243,-5 5,-5c2.757,0 5,2.243 5,5c0,2.757 -2.243,5 -5,5zM31,30c-1.654,0 -3,1.346 -3,3c0,1.654 1.346,3 3,3c1.654,0 3,-1.346 3,-3c0,-1.654 -1.346,-3 -3,-3z" fill="url(#color-6)"></path><path d="M51.5,19h-39c-1.93,0 -3.5,-1.57 -3.5,-3.5h-2v32c0,3.033 2.468,5.5 5.5,5.5h6.898l0.952,-2h-7.85c-1.93,0 -3.5,-1.57 -3.5,-3.5v-27.761c0.952,0.787 2.172,1.261 3.5,1.261h39c1.93,0 3.5,1.57 3.5,3.5c0,1.93 -1.57,3.5 -3.5,3.5h-2.5c-0.553,0 -1,0.448 -1,1v22h-6.35l0.952,2h5.398v6c0,0.552 0.447,1 1,1h2.5c3.032,0 5.5,-2.467 5.5,-5.5v-30c0,-3.033 -2.468,-5.5 -5.5,-5.5zM55,54.5c0,1.93 -1.57,3.5 -3.5,3.5h-1.5v-28h1.5c1.328,0 2.549,-0.473 3.5,-1.26z" fill="url(#color-7)"></path><path d="M37.065,53l-0.953,-2h-10.224l-0.953,2z" fill="url(#color-8)"></path></g></g></svg>