<svg xmlns="http://www.w3.org/2000/svg" xmlns:xlink="http://www.w3.org/1999/xlink" viewBox="0,0,256,256" width="64px" height="64px"><defs><linearGradient x1="31.94" y1="8.534" x2="31.94" y2="56.18" gradientUnits="userSpaceOnUse" id="color-1"><stop offset="0" stop-color="#d4d4d8"></stop><stop offset="0.492" stop-color="#aab9ff" stop-opacity="0"></stop><stop offset="1" stop-color="#ede9fe"></stop></linearGradient><linearGradient x1="31.939" y1="3.214" x2="31.939" y2="58.258" gradientUnits="userSpaceOnUse" id="color-2"><stop offset="0" stop-color="#a1a1aa"></stop><stop offset="1" stop-color="#ddd6fe"></stop></linearGradient></defs><g fill="none" fill-rule="nonzero" stroke="none" stroke-width="1" stroke-linecap="butt" stroke-linejoin="miter" stroke-miterlimit="10" stroke-dasharray="" stroke-dashoffset="0" font-family="none" font-weight="none" font-size="none" text-anchor="none" style="mix-blend-mode: normal"><g transform="scale(4,4)"><path d="M49.42,11.71l-3.22,36.82l-14.3,3.92l-14.12,-4.01l-3.32,-36.73z" fill="url(#color-1)"></path><path d="M19.153,17.377h25.251l-2.228,25.357l-10.291,3.395l-10.186,-2.971l-0.636,-7.32h4.774l0.637,3.819l5.517,1.485l5.623,-1.697l0.424,-6.578l-17.187,0.106l-0.425,-5.199h18.143l0.318,-5.411l-19.203,-0.106z" fill-opacity="0" fill="#ffffff"></path><path d="M52.777,8.635c-0.161,-0.178 -0.39,-0.28 -0.628,-0.28h-40.427c-0.238,0 -0.458,0.102 -0.62,0.28c-0.162,0.178 -0.246,0.416 -0.221,0.645l3.709,41.165c0.034,0.357 0.28,0.645 0.62,0.747l16.441,4.668c0.076,0.017 0.153,0.025 0.238,0.025c0.068,0 0.144,-0.008 0.221,-0.025l16.653,-4.566c0.348,-0.093 0.594,-0.39 0.628,-0.738l3.607,-41.276c0.017,-0.238 -0.06,-0.467 -0.221,-0.645zM31.04,53.916l-14.811,-4.201l-3.573,-39.663h18.384v6.476h-11.891c-0.238,0 -0.467,0.102 -0.628,0.28c-0.161,0.178 -0.238,0.407 -0.221,0.645l0.475,4.982c0.042,0.441 0.407,0.772 0.849,0.772h11.416v3.718h-10.906c-0.238,0 -0.467,0.102 -0.628,0.28c-0.161,0.178 -0.238,0.407 -0.221,0.645l0.484,5.093c0.042,0.441 0.407,0.772 0.849,0.772h10.422v6.213l-3.887,-1.137l-0.365,-3.37c-0.042,-0.433 -0.407,-0.755 -0.84,-0.755h-5.076c-0.238,0 -0.467,0.102 -0.628,0.28c-0.161,0.178 -0.238,0.407 -0.221,0.645l0.721,7.639c0.034,0.348 0.28,0.645 0.62,0.738l9.676,2.767zM32.738,33.716h4.481l-0.407,4.965l-4.074,1.188zM32.016,41.847l0.721,-0.212l5.11,-1.485c0.339,-0.102 0.577,-0.399 0.611,-0.747l0.526,-6.468c0.017,-0.238 -0.068,-0.467 -0.221,-0.645c-0.161,-0.17 -0.39,-0.272 -0.628,-0.272h-5.398h-1.697h-9.65l-0.323,-3.395h9.973h1.698h5.814c0.441,0 0.806,-0.34 0.849,-0.781l0.441,-5.415c0.017,-0.238 -0.068,-0.467 -0.221,-0.645c-0.161,-0.17 -0.39,-0.272 -0.628,-0.272h-6.255h-1.698h-10.643l-0.314,-3.285h10.957h1.698h10.941l-2.292,24.275l-8.649,2.521l-0.747,0.221l-0.951,-0.272l-8.657,-2.47l-0.577,-6.137h3.378l0.348,3.174c0.034,0.34 0.272,0.628 0.603,0.721l4.906,1.443l0.501,0.144c0.152,0.044 0.321,0.044 0.474,0.002zM32.738,23.208h5.339l-0.306,3.718h-5.033zM47.744,49.817l-15.006,4.108v-7.13l9.676,-2.826c0.331,-0.093 0.577,-0.39 0.611,-0.738l2.436,-25.777c0.017,-0.238 -0.059,-0.467 -0.221,-0.645c-0.161,-0.178 -0.39,-0.28 -0.628,-0.28h-11.874v-6.476h18.486z" fill="url(#color-2)"></path></g></g></svg>