<svg xmlns="http://www.w3.org/2000/svg" xmlns:xlink="http://www.w3.org/1999/xlink" viewBox="0,0,256,256" width="64px" height="64px"><defs><linearGradient x1="14.099" y1="16.277" x2="14.099" y2="43.569" gradientUnits="userSpaceOnUse" id="color-1"><stop offset="0" stop-color="#d4d4d8"></stop><stop offset="1" stop-color="#ede9fe"></stop></linearGradient><linearGradient x1="23.312" y1="18.872" x2="23.312" y2="35.284" gradientUnits="userSpaceOnUse" id="color-2"><stop offset="0" stop-color="#a1a1aa"></stop><stop offset="1" stop-color="#ddd6fe"></stop></linearGradient><linearGradient x1="32.309" y1="18.872" x2="32.309" y2="35.284" gradientUnits="userSpaceOnUse" id="color-3"><stop offset="0" stop-color="#a1a1aa"></stop><stop offset="1" stop-color="#ddd6fe"></stop></linearGradient><linearGradient x1="40.213" y1="18.872" x2="40.213" y2="35.284" gradientUnits="userSpaceOnUse" id="color-4"><stop offset="0" stop-color="#a1a1aa"></stop><stop offset="1" stop-color="#ddd6fe"></stop></linearGradient><linearGradient x1="48.889" y1="18.872" x2="48.889" y2="35.284" gradientUnits="userSpaceOnUse" id="color-5"><stop offset="0" stop-color="#a1a1aa"></stop><stop offset="1" stop-color="#ddd6fe"></stop></linearGradient><linearGradient x1="58.783" y1="18.872" x2="58.783" y2="35.284" gradientUnits="userSpaceOnUse" id="color-6"><stop offset="0" stop-color="#a1a1aa"></stop><stop offset="1" stop-color="#ddd6fe"></stop></linearGradient></defs><g fill="none" fill-rule="nonzero" stroke="none" stroke-width="1" stroke-linecap="butt" stroke-linejoin="miter" stroke-miterlimit="10" stroke-dasharray="" stroke-dashoffset="0" font-family="none" font-weight="none" font-size="none" text-anchor="none" style="mix-blend-mode: normal"><g transform="scale(4,4)"><path d="M8.4,41.8c-1.1,-0.8 -2.2,-1.7 -3,-2.8c-1.6,-2 -2.9,-4.3 -3.8,-6.8c-0.5,-1.6 -0.7,-3.3 -1.4,-4.8c-0.7,-1.1 0.1,-2.3 1.3,-2.7c0.5,-0.1 1.5,-0.6 0.3,-0.2c-1,0.8 -1.1,-0.7 -0.1,-0.8c0.7,-0.1 1,-0.7 0.7,-1.2c-0.8,-0.5 1.9,-1.1 0.5,-1.8c-1.4,-1.5 1.9,-1.8 1.1,-0.1c-0.2,1.3 2.3,-0.2 1.7,1.3c0.9,0.7 2.6,0.1 2.5,1.1c0.9,0.1 1.2,0.8 2,0.8c0.8,0.4 2.4,0.7 2.7,1.6c-0.9,0.8 -2.8,-1.2 -2.9,0.6c0.3,2.7 0.2,5.5 1.2,8.1c0.5,1.6 1.6,2.8 2.6,4c1,1.2 2.3,2 3.7,2.7c1.2,0.6 2.5,0.9 3.8,1.2c0.5,-0.4 1.5,-1.9 2.3,-1.3c0,0.7 -1.6,1.5 -0.1,1.4c0.9,-0.3 1.5,0.7 2.3,-0.2c0.7,0.8 2.9,-0.5 2.4,1.2c-0.7,0.4 -1.6,0.2 -2.3,0.8c-1.1,-0.5 -2,0.5 -3.2,0.4c-1.4,0.2 -2.7,0.3 -4.1,0.3c-2.2,-0.2 -4.5,-0.3 -6.7,-1c-1.2,-0.4 -2.4,-1.1 -3.5,-1.8zM10.3,42.6c1.2,0.5 2.3,1 3.6,1.2c2,0.3 4.2,0.7 6.2,0.3c-0.9,-0.4 -1.9,0.2 -2.8,-0.3c-1.1,0.2 -2.3,-0.1 -3.4,-0.2c-1.3,-0.6 -2.7,-1 -3.9,-1.7c-1.5,-0.5 0.8,0.7 1.2,0.8c0.9,0.5 -1,-0.3 -1.3,-0.5c-0.8,-0.4 -0.9,-0.3 -0.1,0.1c0.2,0.2 0.4,0.3 0.5,0.3zM8.1,41.1c1.1,0.4 0,-0.8 -0.5,-0.7c-0.2,-0.4 -0.9,-0.7 -0.4,-0.9c-0.8,0.3 -0.9,-1.1 -1.3,-0.9c-0.9,-0.3 -0.3,-1.3 -1.4,-1.9c-0.1,-0.6 -1,-1.2 -1.3,-2.1c-0.2,-0.5 -1.1,-1.9 -0.5,-0.6c0.5,1.3 1.3,2.3 2.1,3.4c0.6,1 1.2,2.1 2.2,2.7c0.3,0.4 0.6,0.9 1.1,1zM4.8,37.5M9.5,41.6M10.1,41.8M10.8,42.1M12.2,42.9M9.6,41.1M10.2,41.4M13.1,43.2c0.5,0.3 2.7,0.6 1.3,0.1c-0.2,0.1 -2.6,-0.7 -1.3,-0.1zM8.5,39.6M9.8,40.4M11,41.1M7.9,39c0.5,0.4 2.2,0.1 0.8,-0.3c-0.6,-0.3 -2,-0.6 -1.1,0.2l0.3,0.1zM11.8,41.3M10.6,40.4c1.3,0.4 -1.1,-0.8 -0.3,-0.1l0.2,0.1h0.1zM12.9,41.7c1.3,0.1 -1.1,-0.1 0,0zM7.5,38.3M15.1,42.9M9.6,39.6M7.6,38.1M5.2,36.5M11.5,40.6M15.5,43M11.2,40.2M8.2,38.4M13.2,41.4M10.6,39.7c1,0.1 -1.2,-0.7 -0.2,-0.1l0.2,0.1zM14,41.8c0.9,-0.5 0.6,1.3 1.5,0.2c0.9,-0.7 -0.8,0.8 0.3,0.1c0.8,-0.5 2,0.3 2.8,0.5c0.5,0 1.1,0.5 1.6,0.2c1.1,-0.3 -2.1,-0.4 -1.3,-1c-1,0.3 -1.7,-0.3 -2.2,-1c-1.1,-0.3 -2.4,-0.8 -3,-1.8c-0.2,-0.4 0.3,0.1 -0.2,-0.6c-0.7,-0.6 -1,-1.3 -1.5,-2c-0.5,-0.3 -0.6,-1.1 -0.7,0c0,-0.7 -0.6,-1.2 -0.8,-1c0,-0.7 0.7,-0.3 0.2,-0.8c-0.1,-0.7 -0.5,-1.4 -0.6,-2.2c-0.2,-0.4 0,-1.2 -0.6,-0.3c0.1,0.9 0.3,-1.1 0.6,-0.5c0.4,-0.7 -0.1,-0.6 -0.2,-0.5c0.3,-0.6 0.2,-1.4 -0.1,-1.1c0.1,-0.6 0.2,-2.2 -0.2,-1.9c0.3,-0.6 0.5,-2.9 -0.6,-2c-0.5,0 -1.2,0.2 -1.6,0.3c1.2,0.6 -0.1,0.2 -0.6,0.1c-0.1,0.6 -0.5,0.3 -1.1,0.3c0.9,0.1 -0.5,1 -1,0.6c-0.7,0.3 0.6,1.2 0,1.4c0.1,0.4 -1.1,-0.1 -1,0.8c-0.7,-0.3 -0.1,1.1 0.2,0.6c1.1,0.3 0.8,1 0.8,1.7c-0.2,0.4 -0.9,-0.9 -0.2,-0.9c-0.6,-1 -0.7,-0.4 -1.2,0.1c-0.1,0 1.3,0.6 0.4,0.9c0.8,0.1 0.8,0.8 0.9,1.2c0.5,0.5 0.4,-0.5 0.9,0c-0.3,-0.5 -1.8,-1.4 -0.6,-1.1c0,-0.5 -0.2,-0.9 0.2,-0.9c0.4,-0.7 -0.4,1.6 0.4,0.8c0.5,0 0.5,-0.5 0.9,0.2c0.6,0.6 0.2,1 -0.6,0.5c0.1,0.5 1.1,0.7 0.9,1.5c0.2,0.7 0.5,0.4 0.7,0.4c0.2,0.7 0.3,0.2 0.3,-0.1c0.8,0.2 0.6,0.7 0.9,1c0.6,0.3 -0.8,-1.8 0.2,-0.6c1.1,1 0.4,1.4 -0.6,1.2c0.6,0 0.8,0.8 1.5,0.8c0.7,0.3 1.1,1.6 0,1.1c-0.4,-0.4 -1.9,-0.8 -0.7,-0.1c1.1,0.5 2,0.8 3,1.4c0.8,0.5 1.1,1.2 1.4,1.3c-0.6,0.3 -1.9,-0.2 -1,-0.4c-0.6,-0.1 -1.3,-0.4 -0.7,0.3c0.5,0.4 1.7,0.4 1.9,0.4c-0.2,0.4 -0.5,0.4 0,0.5c-0.4,0.1 0.3,0.2 0.4,0.4zM12.8,38.5c-0.3,-0.4 -0.4,-1 -0.1,-0.5c0.3,0.1 0.7,1.1 0.1,0.5zM16.6,40.9M12.3,37.6M11.9,37.1M7.3,33.9M11,35.9M8.4,34.1M10.6,34.8c-0.4,-0.9 0.3,-0.5 0.1,0.2l-0.1,-0.2zM6.8,32.3c-0.2,-0.3 -0.5,-1.2 -0.4,-1.5c0.1,0.4 0.9,1.9 0.4,0.6c-0.6,-1.1 0.7,0.4 0.8,0.6c0.1,0.3 -0.4,-0.1 -0.1,0.6c-0.5,-0.7 -0.2,0.4 -0.7,-0.3zM5.6,31.4M6.1,31.6M4.9,30.6c-0.4,-0.4 -0.8,-0.8 0,-0.3c0.3,0 -0.7,-0.9 0.1,-0.3c0.7,0.2 0.3,1.3 -0.1,0.6zM5.5,30.6M5.9,30.8M5.1,30c-1.3,-1.1 1.6,0.6 0.2,0.2l-0.2,-0.2zM8.8,32.1c-0.6,-0.3 -0.1,-2.3 0,-1c0.5,-0.2 0,0.7 0.4,0.7c-0.1,0.6 -0.3,0.8 -0.4,0.3zM10.1,32.9M9.9,32.7M5.4,29.6c-0.8,-1.1 2.4,1.1 0.5,0.3c-0.2,-0.1 -0.4,-0.1 -0.5,-0.3zM8,31c-0.1,-1 0.1,0.1 0,0zM9.9,32.2M5.5,29.2c0.5,-0.1 2,0.9 0.6,0.3c-0.2,-0.2 -0.5,-0.2 -0.6,-0.3zM9.7,31.3c0.1,-1 0.3,-0.6 0,0.1v-0.1v0zM5.9,28.8c0.2,-0.3 -0.5,-1.3 0.1,-0.4c0.3,0.2 0.8,0.4 0.3,0.5c0.7,0.6 -0.2,0.2 -0.4,-0.1zM9.5,30.9M5.4,27.8M6.4,28.4M9,29.8M8.9,29.5M8.7,28.9c-0.1,-0.4 0.2,0.5 0,0zM9,28.3c-0.3,-0.4 0.3,-2 0.4,-1c-0.3,0.7 -0.1,1.1 0.1,0.2c0.4,-0.8 -0.1,1.5 -0.5,0.8zM9.4,26M8.8,38.5M10.1,39.2c0.7,0.2 0.7,-0.1 0.1,-0.2c-0.4,-0.3 -1.5,-0.7 -0.5,0c0,0.1 0.3,0.1 0.4,0.2zM7.5,37.5c0.4,0.3 1.5,0.8 0.6,0.1c0.3,-0.4 -0.6,-0.6 -0.3,-0.8c-0.8,-0.5 -0.6,-0.4 -0.1,-0.4c-0.9,-0.4 0.1,-0.4 0.1,-0.6c-0.4,-0.1 -1.8,-0.6 -0.9,0c-0.9,-0.4 -0.3,0.2 -0.5,0.1c-0.9,-0.2 0.8,0.7 -0.1,0.4c0.5,0.4 1.3,1 0.2,0.4c-0.2,0.3 0.8,0.6 1,0.8zM8.9,38.2M15.8,42.5M16.6,42.8c0.4,-0.4 0,0.6 0.6,-0.1c0,-0.5 0,-0.8 -0.7,-0.2c-0.2,0.1 -0.3,0.6 0.1,0.3zM5.2,35.6M5.9,36.1M10.3,38.8c0.4,0.4 2,0.3 0.5,0c-0.2,-0.3 -1.3,-0.2 -0.5,0zM16.3,42.5M17.7,43.4M17.7,43.1c0.7,-0.7 -0.7,0.1 0,0zM3.3,34c-0.6,-0.9 -0.4,-1.3 -1,-2c-0.1,-0.6 -1,-1.8 -0.5,-0.5c0.6,0.8 0.7,2 1.5,2.5zM17.4,42.9M18.4,43.3M5,34.7M18.2,43c0.6,-0.4 -0.1,-0.4 -0.1,0h0.1zM9.5,37.5M10,37.8M19.3,43.3c0.8,-0.6 -0.5,-0.1 -0.2,0.1l0.2,-0.1zM19,43.2M20.6,44.2M5.4,34.4c0.6,0.1 2.4,1.5 1.4,0.1c-0.6,-0.2 -0.2,-1.5 -0.8,-1.3c0.4,0.6 0.3,0.9 -0.5,0.5c-1,-0.5 -0.6,0.2 -0.4,0.4c-0.3,0.2 0.3,0.3 0.3,0.3zM2.6,32.3c0.1,-0.4 -1,-2.5 -0.5,-1c0.1,0.3 0.1,0.8 0.5,1zM7.7,35.4M8.5,35.6M15.1,39.8c-0.1,-0.3 -0.5,0 0,0zM15.4,40M18.1,41.7M4,32.6M14.5,39.3M3.7,31.9M5.1,32.6M21.6,42.8c0.6,-0.1 2,0.3 2.2,-0.2c-0.7,0 -2.5,-0.5 -2.6,0.1h0.2l0.2,0.1v0zM5.5,32.7M1.9,30.2M2.8,30.4M3.3,30.7M6.3,32.6M2.9,30.1M1.2,29M1.4,28.8M2.9,29.7c0.6,-0.2 -1.1,-0.5 -0.1,0zM22.1,41.5M24.4,42.7M3,28.9M1,27.6c-0.1,-0.6 -0.1,-1.7 1,-1.4c-1.4,0.3 1,1.7 0.7,0.6c0.6,0 1.2,-0.3 0.8,0.2c1.2,-0.1 2,-1.1 3.1,-1c0.9,-0.1 1.8,-0.2 2.8,-0.6c0.8,-0.1 1.5,-0.9 1.1,-1.4c-1.1,-0.1 -2.2,0 -3.3,0.3c-1.3,0.3 -2.5,0.8 -3.8,1c-1.3,0.2 0.3,0.5 -0.1,0.5c-0.7,0.2 0.8,0.4 -0.1,0.6c-0.5,-0.1 -1.1,-0.3 -0.9,-0.9c-1.3,0.3 -2.3,0.8 -1.3,2.1v0v0zM3.9,26.1c0.3,-1.1 1.5,0.9 0.5,0.1c-0.1,-0.1 -0.4,-0.2 -0.5,-0.1zM4,25.6M4.5,25.6c0,-0.5 1.2,0.3 0.2,0.2l-0.2,-0.2zM5.2,25.3M5.4,25.2c0.4,-0.5 2.5,-0.3 1,-0.1c-0.4,-0.3 -0.7,0.2 -1,0.1zM8,24.7M8.8,24.7c0.3,-0.7 1.1,-0.3 0.1,-0.1c0,0.1 0,0.4 -0.1,0.1zM2.7,28.6c0.8,-0.5 -0.8,-0.5 0,0zM3.3,28.7M1.5,27.5M25.8,42.6M23.3,40.9M26.4,42.8c0.7,0 2,-0.2 0.6,-0.2c-0.2,0 -1.3,0 -0.6,0.2zM3.9,28.4c0.5,0 0.8,-0.6 -0.1,-0.6c-1.4,-0.1 1.3,0.5 -0.2,0.3c-0.2,0.2 0.3,0.4 0.3,0.3zM4.3,28.7M4.9,27.2M3.1,24.2c0.9,-0.3 2.2,-0.7 2.7,0.2c-0.5,-0.5 -0.2,-1.1 0.2,-0.3c0.6,0.8 0.9,-0.4 0.5,-0.6c0.4,0.6 1,0.8 0.3,0c0.7,-0.9 -1.4,0.1 -1.9,0.1c-0.2,0.1 -2.4,0.6 -1.8,0.6zM3.7,23.2c0.5,-0.4 1.9,0.2 1,-0.4c-0.1,-0.1 -1.9,0.5 -1,0.4zM5.6,23.3c0.6,0 -0.3,-0.8 0.5,-0.5c-0.1,-0.4 -0.9,-0.5 -1.2,-0.6c-0.2,0.3 0.4,1.1 0.7,1.1zM4,21.5M4.8,21.7c1,-0.1 -0.3,-0.4 -0.2,0h0.2zM3.3,20.5c-0.7,-0.9 1.3,0.2 0.6,-0.8c-0.6,-0.5 -1.2,0.5 -0.6,0.8zM12.5,25.4c0.3,-0.6 -1.4,-0.8 -0.2,-0.2c0.1,0.1 0.1,0.3 0.2,0.2z" id="path2900" fill="url(#color-1)"></path><g id="text3850"><path d="M28,21.4c-0.1,0.5 -0.2,1.2 -0.2,2.3c0,0.2 -0.1,0.3 -0.3,0.3c-0.2,0 -0.3,-0.1 -0.4,-0.3c-0.2,-0.5 -0.4,-0.9 -0.6,-1.1c-0.2,-0.2 -0.5,-0.4 -0.9,-0.4c-0.4,-0.1 -1.4,-0.1 -2.9,-0.1c-0.4,0 -0.6,0 -0.7,0.1c-0.1,0 -0.1,0.2 -0.1,0.3v4.7c0,0.2 0.1,0.2 0.3,0.2c0.6,0 1.5,0 2.7,-0.1c0.2,0 0.4,-0.1 0.5,-0.2c0.1,-0.1 0.2,-0.4 0.2,-0.9c0,-0.3 0.2,-0.4 0.5,-0.3c0.2,0 0.3,0.2 0.3,0.3c-0.2,0.9 -0.3,2.2 -0.2,3.7c0,0.2 -0.1,0.3 -0.3,0.3c-0.2,0 -0.3,-0.1 -0.4,-0.3c-0.2,-0.9 -0.5,-1.3 -1,-1.4c-0.5,-0.1 -1.3,-0.1 -2.4,-0.1c-0.1,0 -0.2,0 -0.2,0.1v4.7c0,0.3 0.1,0.6 0.4,0.7c0.2,0.1 0.6,0.2 1.3,0.3c0.3,0 0.5,0.2 0.4,0.4c0,0.2 -0.3,0.3 -0.9,0.3c-1.6,-0.1 -3,-0.1 -4.1,0c-0.3,0 -0.4,-0.1 -0.4,-0.4c0,-0.2 0.1,-0.3 0.4,-0.3c0.7,-0.1 1,-0.7 1,-1.8v-8.9c0,-0.5 -0.1,-0.8 -0.2,-1.1c-0.2,-0.2 -0.5,-0.5 -0.9,-0.7c-0.3,-0.1 -0.4,-0.3 -0.3,-0.5c0,-0.1 0.1,-0.2 0.2,-0.2c0.1,0 0.3,0 0.5,0c0.4,0.1 1.5,0.1 3.1,0.1c1.9,0 3.6,0 4.9,-0.1c0.5,0.2 0.7,0.2 0.7,0.4v0z" id="path2830" fill="url(#color-2)"></path><path d="M34.8,34.6c0,0.3 -0.2,0.4 -0.5,0.4c-1,-0.1 -2.1,-0.1 -3.5,0c-0.3,0 -0.5,0 -0.5,0c-0.1,0 -0.1,-0.2 -0.1,-0.3c0,-0.2 0.2,-0.3 0.6,-0.4c0.4,-0.1 0.6,-0.5 0.6,-1v-9.4c0,-0.6 -0.1,-1 -0.2,-1.2c-0.2,-0.3 -0.4,-0.5 -0.9,-0.6c-0.2,-0.1 -0.3,-0.2 -0.3,-0.3c0,-0.2 0.2,-0.4 0.5,-0.5c0.5,-0.2 1,-0.4 1.5,-0.7c0.4,-0.2 0.7,-0.4 0.8,-0.4c0.3,0 0.4,0.2 0.4,0.5c0,0 0,0.3 0,1c0,0.7 0,1.4 0,2v9.3c0,0.4 0.1,0.7 0.3,0.9c0.2,0.2 0.6,0.3 1.1,0.4c0,0 0.2,0.1 0.2,0.3z" id="path2832" fill="url(#color-3)"></path><path d="M44.2,33.9c0,0.1 -0.3,0.4 -0.8,0.7c-0.5,0.3 -1,0.4 -1.3,0.4c-0.3,0 -0.5,-0.1 -0.7,-0.4c-0.2,-0.3 -0.4,-0.4 -0.4,-0.4c-0.1,0 -0.4,0.1 -1,0.4c-0.6,0.3 -1.2,0.4 -1.8,0.4c-0.6,0 -1,-0.2 -1.4,-0.5c-0.4,-0.4 -0.6,-0.9 -0.6,-1.5c0,-1.2 1.4,-2.1 4.1,-2.6c0.5,-0.1 0.7,-0.3 0.7,-0.6v-0.7c0,-1.1 -0.5,-1.7 -1.5,-1.7c-0.3,0 -0.6,0.3 -0.8,0.8c-0.3,0.5 -0.6,0.8 -1.1,0.9c-0.6,0.1 -0.9,-0.2 -0.9,-0.7c0,-0.3 0.4,-0.7 1.3,-1.2c0.9,-0.5 1.7,-0.7 2.6,-0.7c1.4,0 2.1,0.7 2.1,2v4.3c0,0.4 0.2,0.7 0.6,0.7c0.1,0 0.2,0 0.4,-0.1c0.2,0 0.3,-0.1 0.4,-0.1c0,0.2 0.1,0.3 0.1,0.6zM41,31.6c0,-0.2 0,-0.3 -0.1,-0.3c-0.1,-0.1 -0.2,-0.1 -0.4,0c-1.7,0.2 -2.5,0.7 -2.5,1.5c0,0.8 0.4,1.2 1.3,1.2c0.3,0 0.7,-0.1 1.1,-0.2c0.4,-0.2 0.6,-0.3 0.6,-0.5z" id="path2834" fill="url(#color-4)"></path><path d="M52,32.7c0,0.7 -0.3,1.3 -0.8,1.7c-0.6,0.4 -1.3,0.6 -2.3,0.6c-0.6,0 -1.3,-0.1 -1.9,-0.2c-0.6,-0.1 -0.9,-0.2 -1,-0.3c-0.1,-0.1 -0.1,-0.6 -0.1,-1.4c0,-0.4 0.1,-0.6 0.2,-0.6c0.2,0 0.3,0.1 0.4,0.3c0.5,0.9 1.4,1.4 2.5,1.4c1,0 1.5,-0.3 1.5,-1c0,-0.3 -0.1,-0.5 -0.3,-0.7c-0.2,-0.2 -0.7,-0.5 -1.4,-0.8c-1,-0.4 -1.7,-0.8 -2,-1.2c-0.4,-0.4 -0.5,-0.8 -0.5,-1.5c0,-0.7 0.3,-1.3 0.9,-1.7c0.5,-0.4 1.2,-0.6 2.1,-0.6c0.6,0 1.1,0 1.5,0.1c0.5,0.1 0.8,0.2 0.8,0.3c0.1,0.4 0.2,0.9 0.3,1.7c0,0.1 -0.1,0.2 -0.3,0.2c-0.2,0 -0.4,0 -0.5,-0.1c-0.5,-0.9 -1.2,-1.3 -2.1,-1.3c-0.9,0 -1.4,0.3 -1.4,0.9c0,0.3 0.1,0.6 0.4,0.8c0.2,0.2 0.8,0.4 1.6,0.8c0.9,0.4 1.5,0.7 1.8,1c0.4,0.4 0.6,0.9 0.6,1.6z" id="path2836" fill="url(#color-5)"></path><path d="M64,34.5c0,0.2 -0.2,0.4 -0.5,0.4c-0.5,0 -1.1,0 -1.9,0.1c-0.4,0.1 -0.7,0 -0.8,-0.1c-1.1,-1.2 -2,-2.4 -2.8,-3.7c-0.1,-0.1 -0.1,-0.2 -0.2,-0.2c-0.1,0 -0.3,0.1 -0.6,0.3c-0.3,0.2 -0.5,0.4 -0.5,0.8c0,0.2 0,0.6 0,1c0,0.4 0.1,0.7 0.3,0.9c0.1,0.1 0.5,0.2 1,0.2c0.3,0 0.5,0.2 0.5,0.4c0,0.2 0,0.3 -0.1,0.3c-0.1,0 -0.2,0 -0.4,0c-0.7,-0.1 -1.9,0 -3.5,0.1c-0.4,0 -0.6,0 -0.7,-0.2c0,0 0,-0.1 0,-0.2c0,-0.2 0.2,-0.4 0.6,-0.5c0.4,-0.1 0.6,-0.5 0.6,-1.3v-9.1c0,-0.6 -0.1,-1 -0.2,-1.2c-0.2,-0.3 -0.5,-0.5 -1,-0.7c-0.2,-0.1 -0.3,-0.2 -0.3,-0.3c0,-0.2 0.2,-0.4 0.5,-0.5c0.5,-0.2 1,-0.4 1.5,-0.7c0.4,-0.2 0.6,-0.4 0.7,-0.4c0.3,0 0.4,0.2 0.4,0.5c0,0 0,0.3 0,1c0,0.5 0,1.2 0,2v6.5c0,0.2 0,0.3 0.1,0.3c0.1,0 0.3,-0.1 0.5,-0.3c0.6,-0.4 1.3,-1 2.1,-1.8c0.2,-0.2 0.2,-0.3 0.2,-0.4c0,-0.2 -0.3,-0.3 -0.8,-0.4c-0.2,0 -0.4,-0.2 -0.3,-0.4c0,-0.2 0.1,-0.3 0.4,-0.3c0.5,0.1 1.2,0.1 2.2,0.1c0.7,0 1.3,0 2,0c0.2,0 0.3,0.1 0.3,0.4c0,0.2 -0.2,0.4 -0.5,0.4c-0.5,0 -1,0.1 -1.5,0.4c-0.7,0.3 -1.4,0.8 -2.1,1.6c-0.1,0 -0.1,0.1 -0.1,0.2c0,0.1 0.1,0.3 0.4,0.7c0.9,1.3 1.7,2.3 2.4,3c0.5,0.4 1,0.6 1.4,0.6c0.3,0 0.5,0 0.6,0.1c0.1,0.1 0.1,0.3 0.1,0.4z" id="path2838" fill="url(#color-6)"></path></g></g></g></svg>