<svg xmlns="http://www.w3.org/2000/svg" xmlns:xlink="http://www.w3.org/1999/xlink" viewBox="0,0,256,256" width="64px" height="64px"><defs><linearGradient x1="32" y1="5.34" x2="32" y2="56.998" gradientUnits="userSpaceOnUse" id="color-1"><stop offset="0" stop-color="#a1a1aa"></stop><stop offset="1" stop-color="#ddd6fe"></stop></linearGradient><linearGradient x1="31" y1="39" x2="31" y2="47.213" gradientUnits="userSpaceOnUse" id="color-2"><stop offset="0" stop-color="#d4d4d8"></stop><stop offset="1" stop-color="#ede9fe"></stop></linearGradient><linearGradient x1="31" y1="17.043" x2="31" y2="24.326" gradientUnits="userSpaceOnUse" id="color-3"><stop offset="0" stop-color="#d4d4d8"></stop><stop offset="1" stop-color="#ede9fe"></stop></linearGradient><linearGradient x1="43" y1="28.021" x2="43" y2="35.733" gradientUnits="userSpaceOnUse" id="color-4"><stop offset="0" stop-color="#d4d4d8"></stop><stop offset="1" stop-color="#ede9fe"></stop></linearGradient></defs><g fill="none" fill-rule="nonzero" stroke="none" stroke-width="1" stroke-linecap="butt" stroke-linejoin="miter" stroke-miterlimit="10" stroke-dasharray="" stroke-dashoffset="0" font-family="none" font-weight="none" font-size="none" text-anchor="none" style="mix-blend-mode: normal"><g transform="scale(4,4)"><path d="M57.9,28.5l-22.4,-22.4c-0.9,-0.9 -2.2,-1.5 -3.5,-1.5c-1.3,0 -2.6,0.5 -3.5,1.5l-22.4,22.4c-0.9,0.9 -1.5,2.2 -1.5,3.5c0,1.3 0.5,2.6 1.5,3.5l22.3,22.3c0.9,0.9 2.2,1.5 3.5,1.5c1.3,0 2.6,-0.5 3.5,-1.5l22.3,-22.3c0.9,-0.9 1.5,-2.2 1.5,-3.5c0,-1.3 -0.4,-2.6 -1.3,-3.5zM56.5,34.1l-22.4,22.4c-1.1,1.1 -3.1,1.1 -4.2,0l-22.4,-22.4c-0.5,-0.5 -0.8,-1.3 -0.8,-2.1c0,-0.8 0.3,-1.6 0.9,-2.1l16,-16l6.5,6.5v0v22.6h2v-20.6l10.8,10.8l1.4,-1.4l-19.4,-19.3l5,-5c0.5,-0.5 1.3,-0.8 2.1,-0.8c0.8,0 1.6,0.3 2.1,0.9l22.3,22.3c0.6,0.6 0.9,1.3 0.9,2.1c0,0.8 -0.3,1.6 -0.8,2.1z" fill="url(#color-1)"></path><circle cx="31" cy="43" r="4" fill="url(#color-2)"></circle><circle cx="31" cy="21" r="4" fill="url(#color-3)"></circle><g fill="url(#color-4)"><circle cx="43" cy="32" r="4"></circle></g></g></g></svg>