<svg xmlns="http://www.w3.org/2000/svg" xmlns:xlink="http://www.w3.org/1999/xlink" viewBox="0,0,256,256" width="64px" height="64px"><defs><linearGradient x1="32" y1="8" x2="32" y2="56" gradientUnits="userSpaceOnUse" id="color-1"><stop offset="0" stop-color="#a1a1aa"></stop><stop offset="1" stop-color="#ddd6fe"></stop></linearGradient><linearGradient x1="32" y1="28" x2="32" y2="36" gradientUnits="userSpaceOnUse" id="color-2"><stop offset="0" stop-color="#d4d4d8"></stop><stop offset="1" stop-color="#ede9fe"></stop></linearGradient><linearGradient x1="32" y1="8.75" x2="32" y2="55.653" gradientUnits="userSpaceOnUse" id="color-3"><stop offset="0" stop-color="#a1a1aa"></stop><stop offset="1" stop-color="#ddd6fe"></stop></linearGradient></defs><g fill="none" fill-rule="nonzero" stroke="none" stroke-width="1" stroke-linecap="butt" stroke-linejoin="miter" stroke-miterlimit="10" stroke-dasharray="" stroke-dashoffset="0" font-family="none" font-weight="none" font-size="none" text-anchor="none" style="mix-blend-mode: normal"><g transform="scale(4,4)"><path d="M42.575,56h-21.15c-1.733,0 -3.346,-0.962 -4.208,-2.511l-10.575,-19.006c-0.853,-1.532 -0.853,-3.435 0,-4.967l10.575,-19.006c0.862,-1.548 2.474,-2.51 4.208,-2.51h21.15c1.733,0 3.346,0.962 4.208,2.511l10.575,19.006c0.853,1.532 0.853,3.435 0,4.967l-10.575,19.005c-0.862,1.549 -2.474,2.511 -4.208,2.511zM18.965,52.517c0.509,0.915 1.452,1.483 2.46,1.483h21.15c1.008,0 1.951,-0.568 2.46,-1.483l10.575,-19.006c0.519,-0.932 0.519,-2.09 0,-3.021l-10.575,-19.007c-0.509,-0.915 -1.452,-1.483 -2.46,-1.483h-21.15c-1.008,0 -1.951,0.568 -2.46,1.483l-10.575,19.006c-0.519,0.932 -0.519,2.09 0,3.021z" fill="url(#color-1)"></path><path d="M28,28h8v8h-8z" fill="url(#color-2)"></path><path d="M45,29v-2h-4v-4h-4v-4h-2v4h-2v-4h-2v4h-2v-4h-2v4h-4v4h-4v2h4v2h-4v2h4v2h-4v2h4v4h4v4h2v-4h2v4h2v-4h2v4h2v-4h4v-4h4v-2h-4v-2h4v-2h-4v-2zM39,39h-14v-14h14z" fill="url(#color-3)"></path></g></g></svg>