<svg xmlns="http://www.w3.org/2000/svg" xmlns:xlink="http://www.w3.org/1999/xlink" viewBox="0,0,256,256" width="64px" height="64px"><defs><linearGradient x1="32" y1="18" x2="32" y2="46" gradientUnits="userSpaceOnUse" id="color-1"><stop offset="0" stop-color="#d4d4d8"></stop><stop offset="1" stop-color="#ede9fe"></stop></linearGradient><linearGradient x1="32" y1="9" x2="32" y2="54.953" gradientUnits="userSpaceOnUse" id="color-2"><stop offset="0" stop-color="#a1a1aa"></stop><stop offset="1" stop-color="#ddd6fe"></stop></linearGradient><linearGradient x1="32" y1="8" x2="32" y2="56" gradientUnits="userSpaceOnUse" id="color-3"><stop offset="0" stop-color="#a1a1aa"></stop><stop offset="1" stop-color="#ddd6fe"></stop></linearGradient></defs><g fill="none" fill-rule="nonzero" stroke="none" stroke-width="1" stroke-linecap="butt" stroke-linejoin="miter" stroke-miterlimit="10" stroke-dasharray="" stroke-dashoffset="0" font-family="none" font-weight="none" font-size="none" text-anchor="none" style="mix-blend-mode: normal"><g transform="scale(4,4)"><path d="M39.994,18h-15.988l-8.006,14l2.68,4.667v0.012l5.326,9.321h15.988l0.196,-0.35l7.81,-13.65zM32,39c-3.824,0 -6.931,-3.138 -6.931,-7c0,-3.862 3.108,-7 6.931,-7c3.823,0 6.931,3.138 6.931,7c0,3.862 -3.107,7 -6.931,7z" fill="url(#color-1)"></path><path d="M32,25c-3.859,0 -7,3.141 -7,7c0,3.859 3.141,7 7,7c3.859,0 7,-3.141 7,-7c0,-3.859 -3.141,-7 -7,-7zM32,37c-2.757,0 -5,-2.243 -5,-5c0,-2.757 2.243,-5 5,-5c2.757,0 5,2.243 5,5c0,2.757 -2.243,5 -5,5z" fill="url(#color-2)"></path><path d="M57.358,29.517l-10.575,-19.006c-0.862,-1.549 -2.474,-2.511 -4.208,-2.511h-21.15c-1.733,0 -3.346,0.962 -4.208,2.511l-10.575,19.006c-0.853,1.532 -0.853,3.435 0,4.967l10.575,19.006c0.862,1.548 2.474,2.51 4.208,2.51h21.15c1.733,0 3.346,-0.962 4.208,-2.511l10.575,-19.006c0.853,-1.532 0.853,-3.434 0,-4.966zM18.965,11.483c0.509,-0.915 1.452,-1.483 2.46,-1.483h21.15c1.008,0 1.951,0.568 2.46,1.483l3.07,5.517h-7.525h-6.663h-10.497l-7.42,12.985l-3.714,-6.499zM40.025,43.941l-0.605,1.059h-14.84l-7.429,-13l7.428,-13h9.337h5.503l7.429,13zM18.965,52.517l-10.575,-19.006c-0.519,-0.932 -0.519,-2.09 0,-3.021l2.761,-4.961l11.982,20.968v0l0.287,0.503h14.857l-4,7h-12.852c-1.008,0 -1.951,-0.568 -2.46,-1.483zM55.61,33.511l-10.575,19.006c-0.509,0.915 -1.452,1.483 -2.46,1.483h-5.995l12.288,-21.504v0l0.283,-0.496l-7.428,-13h7.495l6.393,11.489c0.518,0.932 0.518,2.09 -0.001,3.022z" fill="url(#color-3)"></path></g></g></svg>