<svg xmlns="http://www.w3.org/2000/svg" xmlns:xlink="http://www.w3.org/1999/xlink" viewBox="0,0,256,256" width="64px" height="64px"><defs><linearGradient x1="32.092" y1="7.766" x2="32.092" y2="57.066" gradientUnits="userSpaceOnUse" id="color-1"><stop offset="0" stop-color="#a1a1aa"></stop><stop offset="1" stop-color="#ddd6fe"></stop></linearGradient><linearGradient x1="32.001" y1="7.766" x2="32.001" y2="57.066" gradientUnits="userSpaceOnUse" id="color-2"><stop offset="0" stop-color="#a1a1aa"></stop><stop offset="1" stop-color="#ddd6fe"></stop></linearGradient><linearGradient x1="31.995" y1="19.575" x2="31.995" y2="40.626" gradientUnits="userSpaceOnUse" id="color-3"><stop offset="0" stop-color="#d4d4d8"></stop><stop offset="1" stop-color="#ede9fe"></stop></linearGradient></defs><g fill="none" fill-rule="nonzero" stroke="none" stroke-width="1" stroke-linecap="butt" stroke-linejoin="miter" stroke-miterlimit="10" stroke-dasharray="" stroke-dashoffset="0" font-family="none" font-weight="none" font-size="none" text-anchor="none" style="mix-blend-mode: normal"><g transform="scale(4,4)"><path d="M53.316,8.324c-0.189,-0.206 -0.457,-0.324 -0.737,-0.324h-38.974c-0.84,0 -1.646,0.355 -2.213,0.975c-0.567,0.62 -0.85,1.453 -0.775,2.289l3.318,37.613c0.109,1.229 0.979,2.281 2.165,2.62l15.075,4.308c0.27,0.076 0.547,0.115 0.824,0.115c0.277,0 0.555,-0.039 0.824,-0.115l15.075,-4.308c1.186,-0.339 2.056,-1.392 2.165,-2.621l3.511,-39.788c0.026,-0.279 -0.068,-0.557 -0.258,-0.764zM48.072,48.699c-0.037,0.417 -0.32,0.76 -0.722,0.874l-15.075,4.308c-0.18,0.053 -0.371,0.053 -0.551,0l-15.075,-4.308c-0.401,-0.114 -0.685,-0.457 -0.722,-0.873l-3.318,-37.612c-0.025,-0.283 0.066,-0.554 0.259,-0.763c0.192,-0.21 0.453,-0.325 0.737,-0.325h37.882z" fill="url(#color-1)"></path><path d="M18.521,48.028l13.205,3.773c0.09,0.025 0.182,0.038 0.274,0.038c0.092,0 0.185,-0.013 0.274,-0.038l13.205,-3.773c0.398,-0.114 0.686,-0.462 0.722,-0.874l3.006,-34.066c0.024,-0.279 -0.069,-0.557 -0.259,-0.764c-0.189,-0.206 -0.457,-0.324 -0.737,-0.324h-32.421c-0.28,0 -0.548,0.118 -0.737,0.324c-0.189,0.207 -0.283,0.484 -0.259,0.764l3.005,34.066c0.036,0.412 0.323,0.76 0.722,0.874zM47.119,14l-2.85,32.294l-12.269,3.506l-12.27,-3.506l-2.848,-32.294z" fill="url(#color-2)"></path><g fill="url(#color-3)"><path d="M41.661,23.541l0.245,-3c0.024,-0.292 -0.206,-0.541 -0.498,-0.541h-18.825c-0.289,0 -0.517,0.244 -0.499,0.532l0.698,11c0.016,0.263 0.235,0.468 0.499,0.468h12.916c0.289,0 0.518,0.245 0.499,0.533l-0.269,4.061c-0.013,0.201 -0.146,0.375 -0.337,0.44l-3.982,1.36c-0.105,0.036 -0.218,0.036 -0.323,0l-3.985,-1.361c-0.19,-0.065 -0.322,-0.236 -0.337,-0.436l-0.159,-2.134c-0.019,-0.261 -0.237,-0.463 -0.499,-0.463h-3.349c-0.29,0 -0.519,0.246 -0.499,0.535l0.374,5.319c0.014,0.203 0.15,0.376 0.342,0.44l8.115,2.671c0.102,0.033 0.211,0.033 0.313,0l8.113,-2.67c0.194,-0.064 0.33,-0.24 0.343,-0.444l0.707,-11.32c0.018,-0.288 -0.21,-0.531 -0.499,-0.531h-13.361c-0.26,0 -0.477,-0.2 -0.498,-0.459l-0.245,-3c-0.023,-0.292 0.206,-0.541 0.499,-0.541h14.003c0.26,0 0.477,-0.2 0.498,-0.459z"></path></g></g></g></svg>