<svg xmlns="http://www.w3.org/2000/svg" xmlns:xlink="http://www.w3.org/1999/xlink" viewBox="0,0,256,256" width="64px" height="64px"><defs><linearGradient x1="32.066" y1="5.133" x2="32.066" y2="59" gradientUnits="userSpaceOnUse" id="color-1"><stop offset="0" stop-color="#d4d4d8"></stop><stop offset="1" stop-color="#ede9fe"></stop></linearGradient><linearGradient x1="32.066" y1="60" x2="32.066" y2="4.133" gradientUnits="userSpaceOnUse" id="color-2"><stop offset="0" stop-color="#ddd6fe"></stop><stop offset="1" stop-color="#a1a1aa"></stop></linearGradient></defs><g fill="none" fill-rule="nonzero" stroke="none" stroke-width="1" stroke-linecap="butt" stroke-linejoin="miter" stroke-miterlimit="10" stroke-dasharray="" stroke-dashoffset="0" font-family="none" font-weight="none" font-size="none" text-anchor="none" style="mix-blend-mode: normal"><g transform="scale(4,4)"><path d="M56.528,32.066l2.472,-2.652l-2.942,-2.12l1.907,-3.084l-3.299,-1.505l1.269,-3.397l-3.529,-0.832l0.582,-3.579l-3.624,-0.128l-0.128,-3.624l-3.579,0.582l-0.832,-3.529l-3.397,1.269l-1.505,-3.299l-3.084,1.907l-2.12,-2.942l-2.653,2.472l-2.653,-2.472l-2.12,2.942l-3.083,-1.907l-1.505,3.299l-3.397,-1.269l-0.832,3.529l-3.579,-0.582l-0.128,3.624l-3.624,0.128l0.582,3.579l-3.529,0.832l1.269,3.397l-3.299,1.505l1.907,3.084l-2.942,2.12l2.472,2.653l-2.472,2.653l2.942,2.12l-1.907,3.084l3.299,1.505l-1.269,3.397l3.529,0.832l-0.582,3.579l3.624,0.128l0.128,3.624l3.579,-0.582l0.832,3.529l3.397,-1.269l1.505,3.299l3.084,-1.907l2.12,2.941l2.653,-2.472l2.652,2.472l2.12,-2.942l3.084,1.907l1.505,-3.299l3.397,1.269l0.832,-3.529l3.579,0.582l0.128,-3.624l3.624,-0.128l-0.582,-3.579l3.529,-0.832l-1.269,-3.397l3.299,-1.505l-1.907,-3.084l2.942,-2.12zM32,10c0.552,0 1,0.448 1,1c0,0.552 -0.448,1 -1,1c-0.552,0 -1,-0.448 -1,-1c0,-0.552 0.448,-1 1,-1zM12,25c0.552,0 1,0.448 1,1c0,0.552 -0.448,1 -1,1c-0.552,0 -1,-0.448 -1,-1c0,-0.552 0.448,-1 1,-1zM12.21,39c-0.779,-2.189 -1.21,-4.542 -1.21,-7c0,-0.856 0.066,-1.695 0.166,-2.524l2.947,-1.001c1.012,-0.344 1.554,-1.443 1.21,-2.455l-0.686,-2.02h3.363v15zM21,51c-0.552,0 -1,-0.448 -1,-1c0,-0.552 0.448,-1 1,-1c0.552,0 1,0.448 1,1c0,0.552 -0.448,1 -1,1zM43,51c-0.552,0 -1,-0.448 -1,-1c0,-0.552 0.448,-1 1,-1c0.552,0 1,0.448 1,1c0,0.552 -0.448,1 -1,1zM46.262,47.383l-3.749,-0.599c-1.055,-0.169 -2.048,0.55 -2.216,1.606l-0.494,3.096c-2.415,0.968 -5.043,1.514 -7.803,1.514c-2.755,0 -5.379,-0.545 -7.79,-1.51l-0.495,-3.1c-0.169,-1.055 -1.161,-1.775 -2.216,-1.606l-3.759,0.6c-1.098,-1.019 -2.085,-2.155 -2.947,-3.385h3.207h9h5v-5h-5v-5h6.166c5.219,1.25 0.755,10 9.834,10h6.207c-0.862,1.23 -1.847,2.366 -2.945,3.384zM27,29v-4h7c1.105,0 2,0.895 2,2c0,1.105 -0.895,2 -2,2zM52.9,34h-2.9v1.66c0,1.845 -1.155,3.34 -3,3.34c-4,0 -0.401,-7.47 -9,-8c3.314,0 7,-2.686 7,-6c0,-3.314 -3.686,-6 -7,-6h-6h-5h-6h-3h-2.464c3.057,-3.87 7.437,-6.64 12.471,-7.61l2.691,2.691c0.756,0.756 1.981,0.756 2.737,0l2.674,-2.674c6.246,1.239 11.493,5.247 14.41,10.693l-1.811,3.204c-0.526,0.931 -0.198,2.111 0.733,2.637l3.453,1.952c0.069,0.693 0.106,1.396 0.106,2.107c0,0.675 -0.037,1.341 -0.1,2zM52,27c-0.552,0 -1,-0.448 -1,-1c0,-0.552 0.448,-1 1,-1c0.552,0 1,0.448 1,1c0,0.552 -0.448,1 -1,1z" fill="url(#color-1)"></path><path d="M29.413,60c-0.032,0 -0.065,-0.002 -0.099,-0.005c-0.285,-0.028 -0.545,-0.178 -0.713,-0.411l-1.574,-2.186l-2.291,1.417c-0.246,0.15 -0.544,0.187 -0.816,0.106c-0.275,-0.083 -0.501,-0.281 -0.62,-0.542l-1.118,-2.451l-2.523,0.942c-0.27,0.103 -0.568,0.08 -0.821,-0.055c-0.253,-0.136 -0.436,-0.373 -0.502,-0.652l-0.618,-2.622l-2.659,0.433c-0.277,0.048 -0.572,-0.032 -0.795,-0.214c-0.222,-0.183 -0.354,-0.451 -0.364,-0.738l-0.096,-2.692l-2.692,-0.096c-0.287,-0.01 -0.556,-0.143 -0.738,-0.364c-0.182,-0.223 -0.26,-0.512 -0.214,-0.795l0.433,-2.659l-2.622,-0.618c-0.279,-0.066 -0.517,-0.249 -0.652,-0.502c-0.136,-0.254 -0.155,-0.553 -0.055,-0.821l0.942,-2.523l-2.451,-1.118c-0.261,-0.119 -0.459,-0.345 -0.542,-0.62c-0.083,-0.274 -0.045,-0.571 0.106,-0.815l1.416,-2.292l-2.187,-1.577c-0.232,-0.168 -0.382,-0.428 -0.41,-0.714c-0.028,-0.285 0.067,-0.569 0.264,-0.779l1.836,-1.971l-1.836,-1.971c-0.196,-0.21 -0.292,-0.494 -0.264,-0.78c0.028,-0.286 0.178,-0.545 0.41,-0.713l2.186,-1.575l-1.416,-2.292c-0.151,-0.244 -0.189,-0.542 -0.106,-0.816c0.083,-0.274 0.281,-0.5 0.542,-0.619l2.451,-1.118l-0.942,-2.523c-0.101,-0.269 -0.081,-0.568 0.055,-0.821c0.135,-0.253 0.373,-0.436 0.652,-0.502l2.622,-0.619l-0.433,-2.659c-0.046,-0.284 0.032,-0.573 0.214,-0.795c0.183,-0.222 0.451,-0.355 0.738,-0.365l2.692,-0.095l0.096,-2.692c0.01,-0.287 0.143,-0.556 0.364,-0.738c0.223,-0.183 0.516,-0.262 0.795,-0.214l2.659,0.432l0.618,-2.622c0.066,-0.279 0.249,-0.517 0.502,-0.652c0.253,-0.135 0.553,-0.155 0.821,-0.055l2.523,0.942l1.119,-2.452c0.119,-0.261 0.345,-0.458 0.62,-0.542c0.272,-0.083 0.571,-0.044 0.816,0.106l2.291,1.417l1.574,-2.186c0.168,-0.233 0.428,-0.382 0.714,-0.411c0.285,-0.029 0.57,0.068 0.779,0.263l1.972,1.837l1.971,-1.836c0.21,-0.195 0.494,-0.292 0.779,-0.264c0.286,0.028 0.546,0.178 0.714,0.411l1.575,2.186l2.291,-1.417c0.245,-0.152 0.543,-0.189 0.816,-0.106c0.275,0.083 0.501,0.281 0.62,0.542l1.118,2.451l2.523,-0.942c0.27,-0.102 0.569,-0.082 0.821,0.055c0.253,0.135 0.436,0.373 0.502,0.652l0.618,2.622l2.659,-0.432c0.279,-0.046 0.572,0.031 0.795,0.214c0.222,0.182 0.354,0.451 0.364,0.738l0.096,2.692l2.692,0.095c0.287,0.01 0.556,0.143 0.738,0.365c0.182,0.222 0.26,0.511 0.214,0.795l-0.433,2.659l2.622,0.619c0.279,0.066 0.518,0.249 0.652,0.502c0.136,0.253 0.155,0.552 0.055,0.821l-0.942,2.523l2.454,1.119c0.261,0.119 0.459,0.345 0.542,0.62c0.083,0.274 0.045,0.572 -0.106,0.816l-1.417,2.292l2.187,1.575c0.232,0.168 0.382,0.428 0.41,0.713c0.028,0.285 -0.067,0.57 -0.264,0.78l-1.836,1.971l1.836,1.971c0.196,0.21 0.292,0.494 0.264,0.779c-0.028,0.286 -0.178,0.546 -0.41,0.714l-2.187,1.575l1.417,2.291c0.151,0.244 0.189,0.542 0.106,0.816c-0.083,0.275 -0.281,0.501 -0.542,0.62l-2.451,1.118l0.942,2.523c0.101,0.269 0.081,0.567 -0.055,0.821c-0.136,0.253 -0.373,0.436 -0.652,0.502l-2.622,0.618l0.433,2.659c0.046,0.283 -0.032,0.572 -0.214,0.795c-0.183,0.222 -0.451,0.354 -0.738,0.364l-2.693,0.097l-0.096,2.692c-0.01,0.287 -0.143,0.556 -0.364,0.738c-0.224,0.182 -0.518,0.26 -0.795,0.214l-2.659,-0.433l-0.618,2.622c-0.066,0.279 -0.249,0.517 -0.502,0.652c-0.252,0.136 -0.551,0.158 -0.821,0.055l-2.523,-0.942l-1.118,2.451c-0.119,0.261 -0.345,0.459 -0.62,0.542c-0.272,0.081 -0.571,0.044 -0.816,-0.106l-2.291,-1.417l-1.575,2.187c-0.168,0.232 -0.428,0.382 -0.714,0.41c-0.285,0.028 -0.569,-0.067 -0.779,-0.264l-1.971,-1.836l-1.972,1.836c-0.187,0.174 -0.431,0.269 -0.683,0.269zM27.293,55.058c0.312,0 0.618,0.146 0.812,0.416l1.456,2.021l1.823,-1.698c0.385,-0.357 0.979,-0.357 1.363,0l1.822,1.698l1.457,-2.022c0.307,-0.425 0.889,-0.541 1.338,-0.266l2.119,1.311l1.033,-2.267c0.218,-0.478 0.767,-0.707 1.26,-0.521l2.334,0.871l0.571,-2.425c0.121,-0.511 0.623,-0.844 1.134,-0.758l2.46,0.4l0.088,-2.49c0.019,-0.524 0.439,-0.945 0.964,-0.964l2.49,-0.088l-0.4,-2.46c-0.084,-0.518 0.247,-1.013 0.758,-1.134l2.425,-0.571l-0.871,-2.334c-0.184,-0.491 0.044,-1.042 0.521,-1.26l2.267,-1.033l-1.311,-2.119c-0.276,-0.447 -0.16,-1.031 0.266,-1.338l2.022,-1.457l-1.698,-1.822c-0.358,-0.384 -0.358,-0.979 0,-1.363l1.698,-1.823l-2.022,-1.457c-0.426,-0.307 -0.542,-0.891 -0.266,-1.337l1.311,-2.119l-2.267,-1.034c-0.478,-0.218 -0.705,-0.768 -0.521,-1.26l0.871,-2.333l-2.425,-0.572c-0.511,-0.121 -0.842,-0.616 -0.758,-1.134l0.4,-2.459l-2.49,-0.088c-0.524,-0.019 -0.945,-0.439 -0.964,-0.964l-0.088,-2.49l-2.46,0.399c-0.511,0.089 -1.013,-0.246 -1.134,-0.757l-0.571,-2.425l-2.334,0.872c-0.488,0.188 -1.041,-0.043 -1.26,-0.521l-1.034,-2.267l-2.118,1.311c-0.449,0.276 -1.031,0.159 -1.338,-0.266l-1.456,-2.023l-1.822,1.698c-0.383,0.358 -0.979,0.358 -1.363,0l-1.823,-1.699l-1.456,2.021c-0.308,0.425 -0.89,0.542 -1.338,0.266l-2.118,-1.311l-1.034,2.267c-0.218,0.477 -0.771,0.708 -1.26,0.521l-2.334,-0.872l-0.571,2.425c-0.121,0.511 -0.625,0.846 -1.134,0.757l-2.46,-0.399l-0.088,2.49c-0.019,0.525 -0.439,0.946 -0.964,0.964l-2.49,0.088l0.4,2.459c0.084,0.518 -0.247,1.013 -0.758,1.134l-2.425,0.572l0.871,2.333c0.184,0.492 -0.044,1.042 -0.521,1.26l-2.267,1.034l1.31,2.119c0.276,0.446 0.16,1.03 -0.266,1.337l-2.021,1.456l1.698,1.823c0.358,0.384 0.358,0.979 0,1.363l-1.698,1.826l2.021,1.457c0.426,0.308 0.542,0.891 0.266,1.337l-1.31,2.119l2.267,1.034c0.478,0.218 0.705,0.769 0.521,1.26l-0.871,2.334l2.425,0.571c0.511,0.121 0.842,0.616 0.758,1.134l-0.4,2.46l2.49,0.088c0.524,0.019 0.945,0.439 0.964,0.964l0.088,2.49l2.46,-0.4c0.509,-0.086 1.013,0.246 1.134,0.758l0.571,2.425l2.334,-0.871c0.49,-0.184 1.042,0.044 1.26,0.521l1.033,2.267l2.119,-1.311c0.164,-0.101 0.345,-0.149 0.525,-0.149z" fill="url(#color-2)"></path></g></g></svg>