<svg xmlns="http://www.w3.org/2000/svg" xmlns:xlink="http://www.w3.org/1999/xlink" viewBox="0,0,256,256" width="64px" height="64px"><defs><linearGradient x1="31" y1="14" x2="31" y2="48" gradientUnits="userSpaceOnUse" id="color-1"><stop offset="0" stop-color="#d4d4d8"></stop><stop offset="1" stop-color="#ede9fe"></stop></linearGradient><linearGradient x1="32" y1="6.667" x2="32" y2="57.872" gradientUnits="userSpaceOnUse" id="color-2"><stop offset="0" stop-color="#a1a1aa"></stop><stop offset="1" stop-color="#ddd6fe"></stop></linearGradient></defs><g fill="none" fill-rule="nonzero" stroke="none" stroke-width="1" stroke-linecap="butt" stroke-linejoin="miter" stroke-miterlimit="10" stroke-dasharray="" stroke-dashoffset="0" font-family="none" font-weight="none" font-size="none" text-anchor="none" style="mix-blend-mode: normal"><g transform="scale(4,4)"><path d="M40.644,45.942c-1.451,0.72 -3.008,1.337 -4.675,1.704c-1.038,0.228 -2.118,0.354 -3.242,0.354c-1.176,0 -2.369,-0.093 -3.577,-0.299c-1.737,-0.296 -3.506,-0.814 -5.303,-1.583c-5.017,-2.129 -9.179,-5.857 -11.847,-10.118c1.341,1.25 6.469,5 12.722,5c6.379,0 8.787,-2.521 8.785,-2.523c-7.129,-5.25 -15.881,-15.602 -18.507,-19.477c4.909,4.473 13.294,10.124 16.069,11.722c-5.87,-6.178 -11.069,-13.722 -11.069,-13.722c9.285,9.373 18.802,15.006 18.98,15.125c0.875,-1.75 1.001,-4.19 1.001,-5.625c0,-4.5 -2.229,-9.75 -4.981,-12.5c7.284,4.397 11.96,12.046 11.985,19.25c0.005,1.346 -0.147,2.677 -0.483,3.969l-0.079,0.232c0,0 0.417,0.482 0.442,0.513c4.313,5.29 3.095,10.971 2.561,9.905c-1.217,-2.376 -2.979,-2.83 -4.692,-2.87c-1.548,-0.034 -3.085,0.444 -4.09,0.943z" fill="url(#color-1)"></path><path d="M44,57h-24c-7.168,0 -13,-5.832 -13,-13v-24c0,-7.168 5.832,-13 13,-13h24c7.168,0 13,5.832 13,13v24c0,7.168 -5.832,13 -13,13zM20,9c-6.065,0 -11,4.935 -11,11v24c0,6.065 4.935,11 11,11h24c6.065,0 11,-4.935 11,-11v-24c0,-6.065 -4.935,-11 -11,-11z" fill="url(#color-2)"></path></g></g></svg>