<svg xmlns="http://www.w3.org/2000/svg" xmlns:xlink="http://www.w3.org/1999/xlink" viewBox="0,0,256,256" width="64px" height="64px"><defs><linearGradient x1="33.8" y1="60.11" x2="33.8" y2="6" gradientUnits="userSpaceOnUse" id="color-1"><stop offset="0" stop-color="#ede9fe"></stop><stop offset="1" stop-color="#d4d4d8"></stop></linearGradient><linearGradient x1="33.8" y1="61.114" x2="33.8" y2="5" gradientUnits="userSpaceOnUse" id="color-2"><stop offset="0" stop-color="#ddd6fe"></stop><stop offset="1" stop-color="#a1a1aa"></stop></linearGradient></defs><g fill="none" fill-rule="nonzero" stroke="none" stroke-width="1" stroke-linecap="butt" stroke-linejoin="miter" stroke-miterlimit="10" stroke-dasharray="" stroke-dashoffset="0" font-family="none" font-weight="none" font-size="none" text-anchor="none" style="mix-blend-mode: normal"><g transform="scale(4,4)"><path d="M19.38,9.56l-9.28,8.95l-3.09,-12.51zM10.6,20.55l2.81,11.39l8.47,-8.15zM22.44,21.87l-2.49,-10.08l-7.48,7.21zM13.97,34.19l2.77,11.2l8.31,-8.01zM15.63,32.58l10.19,2.94l-2.54,-10.29zM29.08,48.75l-2.49,-10.08l-7.49,7.22zM20.37,60.11l9.43,-9.07l-12.56,-3.61zM32.69,13.4l-11.06,-3.19l2.75,11.17zM25.21,24.73l2.49,10.08l7.49,-7.22zM35.71,25.66l-2.48,-10.02l-7.45,7.17zM36.55,29.06l-7.63,7.35l10.16,2.93zM31.34,49.56l8.3,-7.98l-11.05,-3.18zM45.99,17.23l-11.09,-3.2l2.77,11.22zM49.05,29.53l-2.49,-10.08l-7.49,7.22zM41.3,39.98l8.48,-8.16l-11.29,-3.24zM48.23,17.87l3.08,12.49l9.28,-8.93z" fill="url(#color-1)"></path><path d="M20.374,61.114c-0.093,0 -0.187,-0.013 -0.277,-0.04c-0.344,-0.099 -0.607,-0.374 -0.693,-0.721l-13.368,-54.113c-0.086,-0.347 0.02,-0.712 0.277,-0.96c0.257,-0.248 0.63,-0.339 0.97,-0.24l53.586,15.428c0.344,0.099 0.608,0.374 0.694,0.721c0.086,0.347 -0.02,0.713 -0.277,0.961l-40.219,38.685c-0.189,0.182 -0.438,0.279 -0.693,0.279zM8.393,7.439l12.537,50.753l37.72,-36.283z" fill="url(#color-2)"></path></g></g></svg>